<mxfile host="app.diagrams.net" modified="2023-11-01T13:25:39.803Z" agent="Mozilla/5.0 (Macintosh; Intel Mac OS X 10_15_7) AppleWebKit/537.36 (KHTML, like Gecko) Chrome/118.0.0.0 Safari/537.36" version="22.0.8" etag="_URs5zgiRqbuWGHb8HUq" type="github">
  <diagram name="Page-1" id="mFBrZuwnl5eSm5uPsN0N">
    <mxGraphModel>
      <root>
        <mxCell id="0" />
        <mxCell id="1" parent="0" />
      </root>
    </mxGraphModel>
  </diagram>
</mxfile>
